<svg width="250" height="250" viewBox="-125 -125 250 250" role="img" aria-label="Animated bloub avatar" xmlns="http://www.w3.org/2000/svg"><defs><mask id="bot-mask-qow7wr" maskUnits="userSpaceOnUse" x="-158" y="-158" width="316" height="316"><path d="M104.19 0.33C104.19 3.68 103.33 7.16 102.14 10.37C100.96 13.58 98.75 16.63 97.08 19.6C95.41 22.58 93.73 25.41 92.11 28.21C90.49 31.02 88.92 33.73 87.36 36.44C85.8 39.14 84.27 41.79 82.74 44.45C81.2 47.11 79.68 49.74 78.14 52.41C76.6 55.09 75.06 57.75 73.48 60.48C71.9 63.21 70.32 65.96 68.67 68.81C67.02 71.67 65.45 74.7 63.6 77.6C61.75 80.5 59.99 83.83 57.57 86.21C55.16 88.59 52.23 90.6 49.12 91.88C46.02 93.16 42.36 93.55 38.94 93.88C35.51 94.21 31.92 93.88 28.57 93.88C25.21 93.88 21.99 93.88 18.8 93.88C15.6 93.88 12.5 93.88 9.4 93.88C6.3 93.88 3.26 93.88 0.19 93.88C-2.88 93.88 -5.93 93.88 -9.03 93.88C-12.13 93.88 -15.23 93.88 -18.42 93.88C-21.61 93.88 -24.83 93.88 -28.19 93.88C-31.55 93.88 -35.14 94.21 -38.56 93.88C-41.99 93.55 -45.64 93.16 -48.75 91.88C-51.85 90.6 -54.79 88.59 -57.2 86.21C-59.61 83.83 -61.37 80.5 -63.22 77.6C-65.07 74.7 -66.65 71.67 -68.3 68.81C-69.94 65.96 -71.53 63.21 -73.11 60.48C-74.68 57.75 -76.22 55.09 -77.76 52.41C-79.31 49.74 -80.82 47.11 -82.36 44.45C-83.9 41.79 -85.42 39.14 -86.99 36.44C-88.55 33.73 -90.12 31.02 -91.74 28.21C-93.36 25.41 -95.03 22.58 -96.71 19.6C-98.38 16.63 -100.59 13.58 -101.77 10.37C-102.95 7.16 -103.81 3.68 -103.81 0.33C-103.81 -3.02 -102.95 -6.5 -101.77 -9.71C-100.59 -12.93 -98.38 -15.97 -96.71 -18.94C-95.03 -21.92 -93.36 -24.75 -91.74 -27.56C-90.12 -30.36 -88.55 -33.07 -86.99 -35.78C-85.42 -38.49 -83.9 -41.13 -82.36 -43.79C-80.82 -46.46 -79.31 -49.08 -77.76 -51.76C-76.22 -54.43 -74.68 -57.09 -73.11 -59.82C-71.53 -62.55 -69.94 -65.3 -68.3 -68.15C-66.65 -71.01 -65.07 -74.04 -63.22 -76.94C-61.37 -79.84 -59.61 -83.17 -57.2 -85.55C-54.79 -87.93 -51.85 -89.94 -48.75 -91.22C-45.64 -92.5 -41.99 -92.89 -38.56 -93.22C-35.14 -93.55 -31.55 -93.22 -28.19 -93.22C-24.83 -93.22 -21.61 -93.22 -18.42 -93.22C-15.23 -93.22 -12.13 -93.22 -9.03 -93.22C-5.93 -93.22 -2.88 -93.22 0.19 -93.22C3.26 -93.22 6.3 -93.22 9.4 -93.22C12.5 -93.22 15.6 -93.22 18.8 -93.22C21.99 -93.22 25.21 -93.22 28.57 -93.22C31.92 -93.22 35.51 -93.55 38.94 -93.22C42.36 -92.89 46.02 -92.5 49.12 -91.22C52.23 -89.94 55.16 -87.93 57.57 -85.55C59.99 -83.17 61.75 -79.84 63.6 -76.94C65.45 -74.04 67.02 -71.01 68.67 -68.15C70.32 -65.3 71.9 -62.55 73.48 -59.82C75.06 -57.09 76.6 -54.43 78.14 -51.76C79.68 -49.08 81.2 -46.46 82.74 -43.79C84.27 -41.13 85.8 -38.49 87.36 -35.78C88.92 -33.07 90.49 -30.36 92.11 -27.56C93.73 -24.75 95.41 -21.92 97.08 -18.94C98.75 -15.97 100.96 -12.93 102.14 -9.71C103.33 -6.5 104.19 -3.02 104.19 0.33Z" fill="#fff"/><path d="M-10.5 -9.5A10.5 10.5 0 0 1 0 -20L0 -20A10.5 10.5 0 0 1 10.5 -9.5L10.5 9.5A10.5 10.5 0 0 1 0 20L0 20A10.5 10.5 0 0 1 -10.5 9.5Z" class="oeil0" opacity="1" fill="#000"/><path d="M-11 0A7.5 7.5 0 0 1 -3.5 -7.5L3.5 -7.5A7.5 7.5 0 0 1 11 0L11 0A7.5 7.5 0 0 1 3.5 7.5L-3.5 7.5A7.5 7.5 0 0 1 -11 0Z" class="oeil1" opacity="1" fill="#000"/></mask></defs><g fill="none" stroke-linecap="round"></g><g opacity="1"><path d="M104.19 0.33C104.19 3.68 103.33 7.16 102.14 10.37C100.96 13.58 98.75 16.63 97.08 19.6C95.41 22.58 93.73 25.41 92.11 28.21C90.49 31.02 88.92 33.73 87.36 36.44C85.8 39.14 84.27 41.79 82.74 44.45C81.2 47.11 79.68 49.74 78.14 52.41C76.6 55.09 75.06 57.75 73.48 60.48C71.9 63.21 70.32 65.96 68.67 68.81C67.02 71.67 65.45 74.7 63.6 77.6C61.75 80.5 59.99 83.83 57.57 86.21C55.16 88.59 52.23 90.6 49.12 91.88C46.02 93.16 42.36 93.55 38.94 93.88C35.51 94.21 31.92 93.88 28.57 93.88C25.21 93.88 21.99 93.88 18.8 93.88C15.6 93.88 12.5 93.88 9.4 93.88C6.3 93.88 3.26 93.88 0.19 93.88C-2.88 93.88 -5.93 93.88 -9.03 93.88C-12.13 93.88 -15.23 93.88 -18.42 93.88C-21.61 93.88 -24.83 93.88 -28.19 93.88C-31.55 93.88 -35.14 94.21 -38.56 93.88C-41.99 93.55 -45.64 93.16 -48.75 91.88C-51.85 90.6 -54.79 88.59 -57.2 86.21C-59.61 83.83 -61.37 80.5 -63.22 77.6C-65.07 74.7 -66.65 71.67 -68.3 68.81C-69.94 65.96 -71.53 63.21 -73.11 60.48C-74.68 57.75 -76.22 55.09 -77.76 52.41C-79.31 49.74 -80.82 47.11 -82.36 44.45C-83.9 41.79 -85.42 39.14 -86.99 36.44C-88.55 33.73 -90.12 31.02 -91.74 28.21C-93.36 25.41 -95.03 22.58 -96.71 19.6C-98.38 16.63 -100.59 13.58 -101.77 10.37C-102.95 7.16 -103.81 3.68 -103.81 0.33C-103.81 -3.02 -102.95 -6.5 -101.77 -9.71C-100.59 -12.93 -98.38 -15.97 -96.71 -18.94C-95.03 -21.92 -93.36 -24.75 -91.74 -27.56C-90.12 -30.36 -88.55 -33.07 -86.99 -35.78C-85.42 -38.49 -83.9 -41.13 -82.36 -43.79C-80.82 -46.46 -79.31 -49.08 -77.76 -51.76C-76.22 -54.43 -74.68 -57.09 -73.11 -59.82C-71.53 -62.55 -69.94 -65.3 -68.3 -68.15C-66.65 -71.01 -65.07 -74.04 -63.22 -76.94C-61.37 -79.84 -59.61 -83.17 -57.2 -85.55C-54.79 -87.93 -51.85 -89.94 -48.75 -91.22C-45.64 -92.5 -41.99 -92.89 -38.56 -93.22C-35.14 -93.55 -31.55 -93.22 -28.19 -93.22C-24.83 -93.22 -21.61 -93.22 -18.42 -93.22C-15.23 -93.22 -12.13 -93.22 -9.03 -93.22C-5.93 -93.22 -2.88 -93.22 0.19 -93.22C3.26 -93.22 6.3 -93.22 9.4 -93.22C12.5 -93.22 15.6 -93.22 18.8 -93.22C21.99 -93.22 25.21 -93.22 28.57 -93.22C31.92 -93.22 35.51 -93.55 38.94 -93.22C42.36 -92.89 46.02 -92.5 49.12 -91.22C52.23 -89.94 55.16 -87.93 57.57 -85.55C59.99 -83.17 61.75 -79.84 63.6 -76.94C65.45 -74.04 67.02 -71.01 68.67 -68.15C70.32 -65.3 71.9 -62.55 73.48 -59.82C75.06 -57.09 76.6 -54.43 78.14 -51.76C79.68 -49.08 81.2 -46.46 82.74 -43.79C84.27 -41.13 85.8 -38.49 87.36 -35.78C88.92 -33.07 90.49 -30.36 92.11 -27.56C93.73 -24.75 95.41 -21.92 97.08 -18.94C98.75 -15.97 100.96 -12.93 102.14 -9.71C103.33 -6.5 104.19 -3.02 104.19 0.33Z" fill="#f9f9f9"/><g mask="url(#bot-mask-qow7wr)"><rect x="-158" y="-158" width="316" height="316" fill="#0a0a0c"/></g></g><g></g><g fill="none" stroke-linecap="round"></g><style>.oeil0,.oeil1{transform-box:view-box;transform-origin:0 0;animation-duration:2.967s;animation-iteration-count:infinite;animation-timing-function:linear;animation-direction:alternate}.oeil0{animation-name:oeil0}.oeil1{animation-name:oeil1}@keyframes oeil0{0%{transform:matrix(0.99,-0.14,0.14,0.98,-2.77,-7.22)}1.124%{transform:matrix(0.99,-0.14,0.14,0.98,-2.79,-7.17)}2.247%{transform:matrix(0.99,-0.14,0.14,0.98,-2.81,-7.12)}3.371%{transform:matrix(0.99,-0.14,0.14,0.98,-2.85,-7.08)}4.494%{transform:matrix(0.99,-0.14,0.14,0.98,-2.89,-7.04)}5.618%{transform:matrix(0.99,-0.14,0.14,0.98,-2.94,-7.01)}6.742%{transform:matrix(0.99,-0.14,0.14,0.98,-3,-6.98)}7.865%{transform:matrix(0.99,-0.14,0.14,0.98,-3.06,-6.97)}8.989%{transform:matrix(0.99,-0.14,0.14,0.98,-3.14,-6.95)}10.112%{transform:matrix(0.99,-0.14,0.14,0.98,-3.22,-6.95)}11.236%{transform:matrix(0.99,-0.14,0.14,0.98,-3.31,-6.95)}12.36%{transform:matrix(0.99,-0.14,0.14,0.98,-3.4,-6.96)}13.483%{transform:matrix(0.99,-0.14,0.14,0.98,-3.5,-6.98)}14.607%{transform:matrix(0.99,-0.14,0.14,0.98,-3.6,-7)}15.73%{transform:matrix(0.99,-0.14,0.14,0.98,-3.71,-7.03)}16.854%{transform:matrix(0.99,-0.14,0.14,0.98,-3.81,-7.05)}17.978%{transform:matrix(0.99,-0.14,0.14,0.98,-3.91,-7.08)}19.101%{transform:matrix(0.99,-0.14,0.14,0.98,-4.01,-7.11)}20.225%{transform:matrix(0.99,-0.14,0.14,0.98,-4.1,-7.13)}21.348%{transform:matrix(0.99,-0.14,0.14,0.98,-4.19,-7.16)}22.472%{transform:matrix(0.99,-0.14,0.14,0.98,-4.28,-7.18)}23.596%{transform:matrix(0.99,-0.14,0.14,0.98,-4.35,-7.19)}24.719%{transform:matrix(0.99,-0.14,0.14,0.98,-4.43,-7.21)}25.843%{transform:matrix(0.99,-0.14,0.14,0.98,-4.5,-7.22)}26.966%{transform:matrix(0.99,-0.14,0.14,0.98,-4.56,-7.23)}28.09%{transform:matrix(0.99,-0.14,0.14,0.98,-4.62,-7.23)}29.213%{transform:matrix(0.99,-0.14,0.14,0.98,-4.68,-7.23)}30.337%{transform:matrix(0.99,-0.14,0.14,0.98,-4.73,-7.22)}31.461%{transform:matrix(0.99,-0.14,0.14,0.98,-4.78,-7.21)}32.584%{transform:matrix(0.99,-0.14,0.14,0.98,-4.83,-7.19)}33.708%{transform:matrix(0.99,-0.14,0.14,0.98,-4.89,-7.17)}34.831%{transform:matrix(0.99,-0.14,0.14,0.98,-4.95,-7.15)}35.955%{transform:matrix(0.99,-0.14,0.14,0.98,-5.01,-7.12)}37.079%{transform:matrix(0.99,-0.14,0.14,0.98,-5.08,-7.09)}38.202%{transform:matrix(0.99,-0.14,0.14,0.98,-5.15,-7.06)}39.326%{transform:matrix(0.99,-0.14,0.14,0.98,-5.24,-7.03)}40.449%{transform:matrix(0.99,-0.14,0.14,0.98,-5.33,-7)}41.573%{transform:matrix(0.99,-0.14,0.14,0.99,-5.44,-6.97)}42.697%{transform:matrix(0.99,-0.14,0.14,0.99,-5.56,-6.94)}43.82%{transform:matrix(0.99,-0.14,0.14,0.99,-5.68,-6.91)}44.944%{transform:matrix(0.99,-0.14,0.14,0.99,-5.82,-6.87)}46.067%{transform:matrix(0.99,-0.14,0.14,0.99,-5.96,-6.84)}47.191%{transform:matrix(0.99,-0.14,0.14,0.99,-6.11,-6.81)}48.315%{transform:matrix(0.99,-0.09,0.14,0.6,-6.27,-6.78)}49.438%{transform:matrix(0.99,-0.03,0.14,0.22,-6.44,-6.76)}50.562%{transform:matrix(0.99,-0.03,0.14,0.24,-6.6,-6.73)}51.685%{transform:matrix(0.99,-0.08,0.14,0.55,-6.74,-6.67)}52.809%{transform:matrix(0.99,-0.12,0.14,0.86,-6.88,-6.6)}53.933%{transform:matrix(0.99,-0.14,0.14,0.99,-7.02,-6.54)}55.056%{transform:matrix(0.99,-0.14,0.14,0.99,-7.14,-6.48)}56.18%{transform:matrix(0.99,-0.14,0.14,0.99,-7.25,-6.43)}57.303%{transform:matrix(0.99,-0.14,0.14,0.99,-7.35,-6.37)}58.427%{transform:matrix(0.99,-0.14,0.14,0.99,-7.42,-6.32)}59.551%{transform:matrix(0.99,-0.14,0.14,0.99,-7.48,-6.26)}60.674%{transform:matrix(0.99,-0.14,0.14,0.99,-7.52,-6.21)}61.798%{transform:matrix(0.99,-0.14,0.14,0.99,-7.53,-6.14)}62.921%{transform:matrix(0.99,-0.14,0.14,0.99,-7.51,-6.08)}64.045%{transform:matrix(0.99,-0.14,0.14,0.99,-7.48,-6.01)}65.169%{transform:matrix(0.99,-0.14,0.14,0.99,-7.42,-5.95)}66.292%{transform:matrix(0.99,-0.14,0.14,0.99,-7.33,-5.89)}67.416%{transform:matrix(0.99,-0.14,0.14,0.99,-7.22,-5.83)}68.539%{transform:matrix(0.99,-0.14,0.14,0.99,-7.08,-5.75)}69.663%{transform:matrix(0.99,-0.14,0.14,0.99,-6.92,-5.66)}70.787%{transform:matrix(0.99,-0.14,0.14,0.99,-6.74,-5.57)}71.91%{transform:matrix(0.99,-0.14,0.14,0.99,-6.53,-5.47)}73.034%{transform:matrix(0.99,-0.14,0.14,0.99,-6.31,-5.36)}74.157%{transform:matrix(0.99,-0.14,0.14,0.99,-6.08,-5.25)}75.281%{transform:matrix(0.99,-0.14,0.14,0.99,-5.83,-5.13)}76.404%{transform:matrix(0.99,-0.14,0.14,0.99,-5.57,-4.98)}77.528%{transform:matrix(0.99,-0.14,0.14,0.99,-5.29,-4.8)}78.652%{transform:matrix(0.99,-0.14,0.14,0.99,-5.01,-4.61)}79.775%{transform:matrix(0.99,-0.14,0.14,0.99,-4.74,-4.42)}80.899%{transform:matrix(0.99,-0.14,0.14,0.99,-4.48,-4.23)}82.022%{transform:matrix(0.99,-0.14,0.14,0.99,-4.24,-4.03)}83.146%{transform:matrix(0.99,-0.14,0.14,0.99,-4,-3.82)}84.27%{transform:matrix(0.99,-0.14,0.14,0.99,-3.79,-3.62)}85.393%{transform:matrix(0.99,-0.14,0.14,0.99,-3.6,-3.43)}86.517%{transform:matrix(0.99,-0.14,0.14,0.99,-3.44,-3.24)}87.64%{transform:matrix(0.99,-0.14,0.14,0.99,-3.3,-3.07)}88.764%{transform:matrix(0.99,-0.14,0.14,0.99,-3.19,-2.91)}89.888%{transform:matrix(0.99,-0.14,0.14,0.99,-3.11,-2.77)}91.011%{transform:matrix(0.99,-0.14,0.13,0.99,-3.05,-2.65)}92.135%{transform:matrix(0.99,-0.14,0.13,0.99,-3.02,-2.53)}93.258%{transform:matrix(0.99,-0.14,0.13,0.99,-3.01,-2.44)}94.382%{transform:matrix(0.99,-0.14,0.13,0.99,-3.03,-2.36)}95.506%{transform:matrix(0.99,-0.14,0.13,0.99,-3.07,-2.31)}96.629%{transform:matrix(0.99,-0.14,0.14,0.99,-3.14,-2.27)}97.753%{transform:matrix(0.99,-0.14,0.14,0.99,-3.22,-2.26)}98.876%{transform:matrix(0.99,-0.14,0.14,0.99,-3.32,-2.27)}100%{transform:matrix(0.99,-0.14,0.14,0.99,-3.44,-2.3)}}@keyframes oeil1{0%{transform:matrix(0.85,-0.06,0.14,0.98,47.7,-12.82)}1.124%{transform:matrix(0.85,-0.06,0.14,0.98,47.69,-12.78)}2.247%{transform:matrix(0.85,-0.06,0.14,0.98,47.67,-12.74)}3.371%{transform:matrix(0.85,-0.06,0.14,0.98,47.65,-12.7)}4.494%{transform:matrix(0.85,-0.06,0.14,0.98,47.62,-12.67)}5.618%{transform:matrix(0.85,-0.06,0.14,0.98,47.58,-12.64)}6.742%{transform:matrix(0.85,-0.06,0.14,0.98,47.53,-12.62)}7.865%{transform:matrix(0.85,-0.06,0.14,0.98,47.47,-12.6)}8.989%{transform:matrix(0.85,-0.06,0.14,0.98,47.41,-12.59)}10.112%{transform:matrix(0.85,-0.06,0.14,0.98,47.34,-12.58)}11.236%{transform:matrix(0.85,-0.06,0.14,0.98,47.26,-12.58)}12.36%{transform:matrix(0.85,-0.06,0.14,0.98,47.18,-12.58)}13.483%{transform:matrix(0.85,-0.06,0.14,0.98,47.1,-12.59)}14.607%{transform:matrix(0.85,-0.06,0.14,0.98,47.01,-12.59)}15.73%{transform:matrix(0.85,-0.06,0.14,0.98,46.92,-12.6)}16.854%{transform:matrix(0.85,-0.06,0.14,0.98,46.83,-12.61)}17.978%{transform:matrix(0.85,-0.06,0.14,0.98,46.74,-12.63)}19.101%{transform:matrix(0.85,-0.07,0.14,0.98,46.65,-12.64)}20.225%{transform:matrix(0.85,-0.07,0.14,0.98,46.57,-12.65)}21.348%{transform:matrix(0.85,-0.07,0.14,0.98,46.49,-12.66)}22.472%{transform:matrix(0.86,-0.07,0.14,0.98,46.42,-12.67)}23.596%{transform:matrix(0.86,-0.07,0.14,0.98,46.35,-12.68)}24.719%{transform:matrix(0.86,-0.07,0.14,0.98,46.29,-12.69)}25.843%{transform:matrix(0.86,-0.07,0.14,0.98,46.23,-12.69)}26.966%{transform:matrix(0.86,-0.07,0.14,0.98,46.18,-12.68)}28.09%{transform:matrix(0.86,-0.07,0.14,0.98,46.13,-12.68)}29.213%{transform:matrix(0.86,-0.07,0.14,0.98,46.08,-12.67)}30.337%{transform:matrix(0.86,-0.07,0.14,0.98,46.04,-12.65)}31.461%{transform:matrix(0.86,-0.07,0.14,0.98,46.01,-12.63)}32.584%{transform:matrix(0.86,-0.07,0.14,0.98,45.97,-12.6)}33.708%{transform:matrix(0.86,-0.07,0.14,0.98,45.93,-12.57)}34.831%{transform:matrix(0.86,-0.07,0.14,0.98,45.89,-12.54)}35.955%{transform:matrix(0.86,-0.07,0.14,0.98,45.85,-12.5)}37.079%{transform:matrix(0.86,-0.07,0.14,0.98,45.8,-12.45)}38.202%{transform:matrix(0.86,-0.07,0.14,0.98,45.75,-12.41)}39.326%{transform:matrix(0.86,-0.07,0.14,0.98,45.7,-12.36)}40.449%{transform:matrix(0.86,-0.07,0.14,0.98,45.63,-12.31)}41.573%{transform:matrix(0.86,-0.07,0.14,0.99,45.56,-12.25)}42.697%{transform:matrix(0.86,-0.07,0.14,0.99,45.48,-12.2)}43.82%{transform:matrix(0.86,-0.07,0.14,0.99,45.4,-12.14)}44.944%{transform:matrix(0.86,-0.07,0.14,0.99,45.3,-12.09)}46.067%{transform:matrix(0.86,-0.07,0.14,0.99,45.2,-12.03)}47.191%{transform:matrix(0.86,-0.07,0.14,0.99,45.09,-11.98)}48.315%{transform:matrix(0.86,-0.04,0.14,0.6,44.98,-11.93)}49.438%{transform:matrix(0.86,-0.02,0.14,0.22,44.87,-11.88)}50.562%{transform:matrix(0.87,-0.02,0.14,0.24,44.75,-11.83)}51.685%{transform:matrix(0.87,-0.04,0.14,0.55,44.64,-11.78)}52.809%{transform:matrix(0.87,-0.06,0.14,0.86,44.53,-11.73)}53.933%{transform:matrix(0.87,-0.07,0.14,0.99,44.42,-11.69)}55.056%{transform:matrix(0.87,-0.07,0.14,0.99,44.32,-11.64)}56.18%{transform:matrix(0.87,-0.07,0.14,0.99,44.24,-11.6)}57.303%{transform:matrix(0.87,-0.07,0.14,0.99,44.16,-11.56)}58.427%{transform:matrix(0.87,-0.07,0.14,0.99,44.1,-11.52)}59.551%{transform:matrix(0.87,-0.07,0.14,0.99,44.05,-11.48)}60.674%{transform:matrix(0.87,-0.07,0.14,0.99,44.03,-11.44)}61.798%{transform:matrix(0.87,-0.07,0.14,0.99,44.03,-11.39)}62.921%{transform:matrix(0.87,-0.07,0.14,0.99,44.04,-11.35)}64.045%{transform:matrix(0.87,-0.07,0.14,0.99,44.08,-11.3)}65.169%{transform:matrix(0.87,-0.07,0.14,0.99,44.15,-11.25)}66.292%{transform:matrix(0.87,-0.07,0.14,0.99,44.24,-11.2)}67.416%{transform:matrix(0.87,-0.07,0.14,0.99,44.35,-11.14)}68.539%{transform:matrix(0.87,-0.07,0.14,0.99,44.5,-11.08)}69.663%{transform:matrix(0.87,-0.08,0.14,0.99,44.66,-11.01)}70.787%{transform:matrix(0.87,-0.08,0.14,0.99,44.85,-10.93)}71.91%{transform:matrix(0.86,-0.08,0.14,0.99,45.06,-10.85)}73.034%{transform:matrix(0.86,-0.08,0.14,0.99,45.28,-10.77)}74.157%{transform:matrix(0.86,-0.08,0.14,0.99,45.52,-10.68)}75.281%{transform:matrix(0.86,-0.08,0.14,0.99,45.77,-10.58)}76.404%{transform:matrix(0.86,-0.08,0.14,0.99,46.02,-10.47)}77.528%{transform:matrix(0.86,-0.08,0.14,0.99,46.28,-10.36)}78.652%{transform:matrix(0.86,-0.08,0.14,0.99,46.54,-10.24)}79.775%{transform:matrix(0.86,-0.08,0.14,0.99,46.8,-10.12)}80.899%{transform:matrix(0.86,-0.08,0.14,0.99,47.05,-10)}82.022%{transform:matrix(0.85,-0.08,0.14,0.99,47.29,-9.87)}83.146%{transform:matrix(0.85,-0.08,0.14,0.99,47.52,-9.74)}84.27%{transform:matrix(0.85,-0.08,0.14,0.99,47.74,-9.61)}85.393%{transform:matrix(0.85,-0.08,0.14,0.99,47.93,-9.48)}86.517%{transform:matrix(0.85,-0.08,0.14,0.99,48.11,-9.36)}87.64%{transform:matrix(0.85,-0.08,0.14,0.99,48.26,-9.23)}88.764%{transform:matrix(0.85,-0.08,0.14,0.99,48.39,-9.12)}89.888%{transform:matrix(0.85,-0.09,0.14,0.99,48.5,-9.01)}91.011%{transform:matrix(0.85,-0.09,0.13,0.99,48.58,-8.91)}92.135%{transform:matrix(0.85,-0.09,0.13,0.99,48.63,-8.82)}93.258%{transform:matrix(0.85,-0.09,0.13,0.99,48.66,-8.74)}94.382%{transform:matrix(0.85,-0.09,0.13,0.99,48.67,-8.68)}95.506%{transform:matrix(0.85,-0.09,0.13,0.99,48.65,-8.62)}96.629%{transform:matrix(0.85,-0.09,0.14,0.99,48.61,-8.59)}97.753%{transform:matrix(0.85,-0.09,0.14,0.99,48.55,-8.57)}98.876%{transform:matrix(0.85,-0.09,0.14,0.99,48.47,-8.56)}100%{transform:matrix(0.85,-0.09,0.14,0.99,48.37,-8.58)}}</style></svg>